<?xml version="1.0" standalone="no"?><!DOCTYPE svg PUBLIC "-//W3C//DTD SVG 1.1//EN" "http://www.w3.org/Graphics/SVG/1.1/DTD/svg11.dtd"><svg t="1529546517408" class="icon" style="" viewBox="0 0 1024 1024" version="1.1" xmlns="http://www.w3.org/2000/svg" p-id="2718" xmlns:xlink="http://www.w3.org/1999/xlink" width="48" height="48"><defs><style type="text/css">html, * { user-select: text !important; }
</style></defs><path d="M915.437382 325.818182 108.627782 325.818182C74.361018 325.818182 46.545455 353.568582 46.545455 387.900509l0 248.264145C46.545455 670.431418 74.361018 698.181818 108.627782 698.181818l806.8096 0c34.266764 0 62.017164-27.815564 62.017164-62.017164L977.454545 387.900509C977.454545 353.568582 949.648291 325.818182 915.437382 325.818182L915.437382 325.818182zM354.266764 631.9104l-54.5792 0-86.984145-157.323636 0 157.267782-51.786473 0L160.916945 406.285964l69.5296 0 71.968582 129.275345L302.415127 406.285964l51.842327 0L354.257455 631.9104 354.266764 631.9104zM552.5504 449.340509 456.378182 449.340509l0 39.563636 88.613236 0 0 42.998691-88.613236 0 0 56.962327 96.172218 0 0 42.998691L400.002327 631.863855 400.002327 406.285964l152.613236 0 0 43.054545L552.5504 449.340509 552.5504 449.340509zM824.841309 631.9104l-62.082327 0-36.2496-139.515345-35.141818 139.515345-62.138182 0-57.129891-225.624436 58.824145 0 31.008582 151.384436 37.878691-151.384436 56.198982 0 35.961018 151.384436 32.693527-151.384436 57.306764 0L824.841309 631.9104 824.841309 631.9104z" p-id="2719" fill="#FF5E5E"></path></svg>